<?xml version="1.0" encoding="UTF-8"?>
<svg id="Layer_2" data-name="Layer 2" xmlns="http://www.w3.org/2000/svg" viewBox="0 0 941.22 219.72">
  <defs>
    <style>
      .cls-1 {
        font-family: AsticassiaNarrow, Asticassia;
        font-size: 115px;
      }

      .cls-2 {
        fill: #4589df;
        stroke-width: 0px;
      }
    </style>
  </defs>
  <g id="Layer_1-2" data-name="Layer 1">
    <g>
      <g>
        <path class="cls-2" d="M213.27,157.04c9.66,15.03,22.58,27.19,39.94,31.43s37.03,1.56,52.53-7.33l31.5-.17s-.4,4.39-1.04,5.54c-1.16,2.1-3.36,4.27-4.99,6.04-6.31,6.86-9.73,9.75-20.89,15.67-7.54,2.26-15.46,2.98-23.33,3.1-34.32.54-68.91-10.56-95.75-31.96-14.43-11.51-14.04-34.21-18.99-51.34H41.02l-8.39,29.01H0L39.21,22.87c2.11-7.25,3.74-11.48,4.87-12.69,1.13-1.21,4.11-1.81,8.95-1.81h107.2c4.83,0,7.85.61,9.07,1.81,1.21,1.21,2.87,5.44,4.99,12.69l38.98,134.17h-32.64M45.33,113.53h122.61l-24.48-84.31c-.91-3.17-1.66-5.02-2.27-5.55-.61-.53-2.12-.79-4.53-.79h-60.06c-2.42,0-3.89.27-4.42.79s-1.25,2.38-2.15,5.55l-24.7,84.31Z"/>
        <path class="cls-2" d="M228.45,142.54V22.87c0-3.93.98-7.33,2.95-10.2,1.96-2.87,4.23-4.31,6.8-4.31h166.81c2.57,0,4.8,1.44,6.69,4.31,1.89,2.87,2.83,6.27,2.83,10.2v119.67c0,3.93-.95,7.33-2.83,10.2-1.89,2.87-4.12,4.31-6.69,4.31h-67.77v25.38h-31.5v-25.38h-67.54c-2.57,0-4.84-1.43-6.8-4.31-1.96-2.87-2.95-6.27-2.95-10.2ZM259.96,131.66c0,3.02.75,5.59,2.27,7.71,1.51,2.12,3.25,3.17,5.21,3.17h108.11c2.11,0,3.93-1.09,5.44-3.29,1.51-2.19,2.27-4.72,2.27-7.59V33.75c0-2.87-.76-5.4-2.27-7.59-1.51-2.19-3.32-3.29-5.44-3.29h-108.11c-1.96,0-3.7,1.06-5.21,3.17-1.51,2.12-2.27,4.68-2.27,7.71v97.91Z"/>
      </g>
      <text class="cls-1" transform="translate(439.34 94.34)"><tspan x="0" y="0">Anime</tspan><tspan x="0" y="100">Quotes</tspan></text>
    </g>
  </g>
</svg>